<?xml version="1.0" standalone="no"?>
<!DOCTYPE svg PUBLIC "-//W3C//DTD SVG 20010904//EN"
 "http://www.w3.org/TR/2001/REC-SVG-20010904/DTD/svg10.dtd">
<svg version="1.0" xmlns="http://www.w3.org/2000/svg"
 width="240.000000pt" height="240.000000pt" viewBox="0 0 240.000000 240.000000"
 preserveAspectRatio="xMidYMid meet">

<g transform="translate(0.000000,240.000000) scale(0.100000,-0.100000)"
fill="#000000" stroke="none">
<path d="M409 2072 c-43 -22 -59 -38 -81 -81 l-28 -53 0 -738 0 -738 28 -53
c22 -43 38 -59 81 -81 l53 -28 738 0 738 0 53 28 c43 22 59 38 81 81 l28 53 0
738 0 738 -28 53 c-22 43 -38 59 -81 81 l-53 28 -738 0 -738 0 -53 -28z m725
-542 c64 -93 120 -170 124 -169 4 0 72 77 152 170 l145 169 48 0 c26 0 47 -2
47 -5 0 -3 -75 -91 -166 -197 -91 -105 -168 -197 -171 -204 -3 -8 86 -143 196
-301 l201 -288 -157 -3 c-117 -2 -160 1 -169 10 -7 7 -67 92 -134 188 -67 96
-123 176 -125 178 -1 1 -76 -83 -166 -188 l-164 -190 -53 0 -52 0 190 219
c104 121 190 224 190 229 0 8 -172 258 -337 490 l-44 62 163 0 164 0 118 -170z"/>
<path d="M862 1600 c2 -5 129 -189 283 -409 l280 -400 63 -1 c50 0 61 3 55 13
-4 8 -134 192 -287 410 l-279 397 -59 0 c-34 0 -58 -4 -56 -10z"/>
</g>
</svg>
